<svg xmlns="http://www.w3.org/2000/svg" xmlns:xlink="http://www.w3.org/1999/xlink" width="500" zoomAndPan="magnify" viewBox="0 0 375 374.999991" height="500" preserveAspectRatio="xMidYMid meet" version="1.0"><defs><clipPath id="3c7a9f5c97"><path d="M 57.484375 3 L 324 3 L 324 289 L 57.484375 289 Z M 57.484375 3 " clip-rule="nonzero"/></clipPath><clipPath id="0fa630c3a2"><path d="M 113 105 L 308 105 L 308 374.992188 L 113 374.992188 Z M 113 105 " clip-rule="nonzero"/></clipPath></defs><g clip-path="url(#3c7a9f5c97)"><path fill="#a274ff" d="M 66.613281 77.511719 C 66.613281 78.816406 66.613281 80.121094 66.613281 81.425781 C 66.613281 148.058594 66.613281 214.707031 66.605469 281.339844 C 66.605469 282.585938 66.671875 283.835938 66.507812 285.0625 C 66.199219 287.222656 65.054688 288.78125 62.714844 288.871094 C 60.316406 288.964844 58.8125 287.601562 58.277344 285.332031 C 58.023438 284.246094 58.121094 283.074219 58.121094 281.9375 C 58.121094 210.539062 58.121094 139.140625 58.121094 67.742188 C 58.121094 66.191406 58.171875 64.625 57.980469 63.09375 C 57.640625 60.476562 58.839844 58.933594 61.160156 58.101562 C 63.460938 57.269531 65.105469 58.164062 66.472656 60.089844 C 74.988281 72.066406 83.542969 84.007812 92.078125 95.964844 C 118.050781 132.335938 144.035156 168.710938 170.007812 205.074219 C 170.601562 205.90625 171.242188 206.695312 172.074219 207.78125 C 172.824219 206.808594 173.464844 206.046875 174.042969 205.242188 C 220.808594 139.097656 267.582031 72.949219 314.355469 6.804688 C 314.414062 6.714844 314.46875 6.636719 314.527344 6.550781 C 316.953125 3.136719 319.359375 2.25 321.621094 3.96875 C 323.871094 5.664062 323.871094 8.433594 321.574219 11.671875 C 285.113281 63.058594 248.644531 114.4375 212.183594 165.820312 C 184.285156 205.136719 156.386719 244.460938 128.488281 283.785156 C 127.769531 284.800781 127.078125 285.832031 126.316406 286.8125 C 124.554688 289.0625 122.246094 289.554688 120.082031 288.1875 C 117.867188 286.785156 117.273438 284.546875 118.910156 282.015625 C 122.859375 275.949219 126.824219 269.875 131.085938 264.027344 C 141.808594 249.308594 152.753906 234.753906 163.511719 220.0625 C 167.425781 214.722656 166.933594 216.113281 163.582031 211.429688 C 132.328125 167.757812 101.050781 124.109375 69.78125 80.460938 C 69.011719 79.382812 68.214844 78.324219 67.425781 77.25 C 67.164062 77.335938 66.882812 77.421875 66.613281 77.511719 Z M 66.613281 77.511719 " fill-opacity="1" fill-rule="nonzero"/></g><g clip-path="url(#0fa630c3a2)"><path fill="#a274ff" d="M 297.46875 125.394531 C 290.570312 135.058594 283.660156 144.726562 276.773438 154.40625 C 252.96875 187.875 229.183594 221.347656 205.382812 254.808594 C 177.859375 293.5 150.335938 332.183594 122.804688 370.871094 C 122.261719 371.632812 121.78125 372.445312 121.132812 373.101562 C 119.320312 374.957031 117.238281 374.933594 115.242188 373.503906 C 113.273438 372.09375 112.835938 370.25 114.277344 368.121094 C 119.847656 359.902344 125.246094 351.566406 131 343.476562 C 178.191406 277.015625 225.429688 210.589844 272.703125 144.191406 C 281.34375 132.058594 290.210938 120.089844 298.929688 108.011719 C 300.191406 106.257812 301.808594 104.710938 303.769531 105.769531 C 305.242188 106.558594 306.222656 108.519531 307.027344 110.15625 C 307.492188 111.082031 307.203125 112.386719 307.203125 113.523438 C 307.203125 169.078125 307.203125 224.640625 307.203125 280.195312 C 307.203125 285.238281 305.714844 287.59375 302.597656 287.53125 C 299.488281 287.46875 298.203125 285.386719 298.203125 280.386719 C 298.203125 229.796875 298.203125 179.207031 298.203125 128.617188 C 298.203125 127.621094 298.203125 126.621094 298.203125 125.613281 C 297.964844 125.535156 297.722656 125.464844 297.46875 125.394531 Z M 297.46875 125.394531 " fill-opacity="1" fill-rule="nonzero"/></g><path fill="#a274ff" d="M 141.660156 303.523438 C 137.03125 303.59375 134.964844 300.335938 136.882812 297.210938 C 139.746094 292.546875 142.738281 287.941406 145.90625 283.476562 C 201.25 205.671875 256.628906 127.882812 312.007812 50.101562 C 315.125 45.714844 318.355469 41.417969 321.53125 37.074219 C 323.449219 34.457031 325.507812 33.820312 327.527344 35.195312 C 329.726562 36.691406 330.339844 39.964844 328.675781 42.308594 C 319.40625 55.378906 310.074219 68.40625 300.785156 81.46875 C 257.496094 142.335938 214.214844 203.210938 170.933594 264.078125 C 162.179688 276.386719 153.4375 288.695312 144.601562 300.941406 C 143.71875 302.175781 142.273438 303 141.660156 303.523438 Z M 141.660156 303.523438 " fill-opacity="1" fill-rule="nonzero"/></svg>